<svg width="1442" height="845" viewBox="0 0 1442 845" fill="none" xmlns="http://www.w3.org/2000/svg">
<mask id="mask0_96_1293" style="mask-type:alpha" maskUnits="userSpaceOnUse" x="0" y="0" width="1442" height="845">
<rect width="1442" height="845" fill="url(#paint0_linear_96_1293)"/>
</mask>
<g mask="url(#mask0_96_1293)">
<rect width="1442" height="845" fill="url(#paint1_linear_96_1293)"/>
<path d="M1609.53 43.2703C1609.53 175.414 1502.41 282.537 1370.27 282.537C1238.12 282.537 1131 175.414 1131 43.2703C1131 -88.8732 1238.12 -195.997 1370.27 -195.997C1502.41 -195.997 1609.53 -88.8732 1609.53 43.2703ZM1238.69 43.2703C1238.69 115.939 1297.6 174.848 1370.27 174.848C1442.94 174.848 1501.84 115.939 1501.84 43.2703C1501.84 -29.3982 1442.94 -88.3076 1370.27 -88.3076C1297.6 -88.3076 1238.69 -29.3982 1238.69 43.2703Z" fill="#D92A2A"/>
<path d="M1483.05 26.5316C1483.05 84.8179 1435.8 132.068 1377.51 132.068C1319.22 132.068 1271.97 84.8179 1271.97 26.5316C1271.97 -31.7547 1319.22 -79.0051 1377.51 -79.0051C1435.8 -79.0051 1483.05 -31.7547 1483.05 26.5316ZM1319.47 26.5316C1319.47 58.5844 1345.46 84.5684 1377.51 84.5684C1409.56 84.5684 1435.55 58.5844 1435.55 26.5316C1435.55 -5.52131 1409.56 -31.5053 1377.51 -31.5053C1345.46 -31.5053 1319.47 -5.52131 1319.47 26.5316Z" fill="#D92A2A"/>
</g>
<defs>
<linearGradient id="paint0_linear_96_1293" x1="721" y1="0" x2="721" y2="845" gradientUnits="userSpaceOnUse">
<stop stop-color="#FF3939"/>
<stop offset="1" stop-color="#9B1B1B"/>
</linearGradient>
<linearGradient id="paint1_linear_96_1293" x1="721" y1="0" x2="721" y2="845" gradientUnits="userSpaceOnUse">
<stop stop-color="#FF3939"/>
<stop offset="1" stop-color="#9B1B1B"/>
</linearGradient>
</defs>
</svg>
