<svg width="191" height="189" viewBox="0 0 191 189" fill="none" xmlns="http://www.w3.org/2000/svg">
<circle cx="2.86364" cy="2.86364" r="2.86364" fill="#BB2525" fill-opacity="0.5"/>
<circle cx="20.0455" cy="2.86364" r="2.86364" fill="#BB2525" fill-opacity="0.5"/>
<circle cx="37.2273" cy="2.86364" r="2.86364" fill="#BB2525" fill-opacity="0.5"/>
<circle cx="54.4091" cy="2.86364" r="2.86364" fill="#BB2525" fill-opacity="0.5"/>
<circle cx="71.5909" cy="2.86364" r="2.86364" fill="#BB2525" fill-opacity="0.5"/>
<circle cx="88.7728" cy="2.86364" r="2.86364" fill="#BB2525" fill-opacity="0.5"/>
<circle cx="105.955" cy="2.86364" r="2.86364" fill="#BB2525" fill-opacity="0.5"/>
<circle cx="123.136" cy="2.86364" r="2.86364" fill="#BB2525" fill-opacity="0.5"/>
<circle cx="140.318" cy="2.86364" r="2.86364" fill="#BB2525" fill-opacity="0.5"/>
<circle cx="157.5" cy="2.86364" r="2.86364" fill="#BB2525" fill-opacity="0.5"/>
<circle cx="174.682" cy="2.86364" r="2.86364" fill="#BB2525" fill-opacity="0.5"/>
<g clip-path="url(#clip0_16_32)">
<circle cx="2.86364" cy="20.0455" r="2.86364" fill="#BB2525" fill-opacity="0.5"/>
<circle cx="20.0455" cy="20.0455" r="2.86364" fill="#BB2525" fill-opacity="0.5"/>
<circle cx="37.2273" cy="20.0455" r="2.86364" fill="#BB2525" fill-opacity="0.5"/>
<circle cx="54.4091" cy="20.0455" r="2.86364" fill="#BB2525" fill-opacity="0.5"/>
<circle cx="71.5909" cy="20.0455" r="2.86364" fill="#BB2525" fill-opacity="0.5"/>
<circle cx="88.7728" cy="20.0455" r="2.86364" fill="#BB2525" fill-opacity="0.5"/>
<circle cx="105.955" cy="20.0455" r="2.86364" fill="#BB2525" fill-opacity="0.5"/>
<circle cx="123.136" cy="20.0455" r="2.86364" fill="#BB2525" fill-opacity="0.5"/>
<circle cx="140.318" cy="20.0455" r="2.86364" fill="#BB2525" fill-opacity="0.5"/>
<circle cx="157.5" cy="20.0455" r="2.86364" fill="#BB2525" fill-opacity="0.5"/>
<circle cx="174.682" cy="20.0455" r="2.86364" fill="#BB2525" fill-opacity="0.5"/>
</g>
<g clip-path="url(#clip1_16_32)">
<circle cx="2.86364" cy="37.2273" r="2.86364" fill="#BB2525" fill-opacity="0.5"/>
<circle cx="20.0455" cy="37.2273" r="2.86364" fill="#BB2525" fill-opacity="0.5"/>
<circle cx="37.2273" cy="37.2273" r="2.86364" fill="#BB2525" fill-opacity="0.5"/>
<circle cx="54.4091" cy="37.2273" r="2.86364" fill="#BB2525" fill-opacity="0.5"/>
<circle cx="71.5909" cy="37.2273" r="2.86364" fill="#BB2525" fill-opacity="0.5"/>
<circle cx="88.7728" cy="37.2273" r="2.86364" fill="#BB2525" fill-opacity="0.5"/>
<circle cx="105.955" cy="37.2273" r="2.86364" fill="#BB2525" fill-opacity="0.5"/>
<circle cx="123.136" cy="37.2273" r="2.86364" fill="#BB2525" fill-opacity="0.5"/>
<circle cx="140.318" cy="37.2273" r="2.86364" fill="#BB2525" fill-opacity="0.5"/>
<circle cx="157.5" cy="37.2273" r="2.86364" fill="#BB2525" fill-opacity="0.5"/>
<circle cx="174.682" cy="37.2273" r="2.86364" fill="#BB2525" fill-opacity="0.5"/>
</g>
<g clip-path="url(#clip2_16_32)">
<circle cx="2.86364" cy="54.4091" r="2.86364" fill="#BB2525" fill-opacity="0.5"/>
<circle cx="20.0455" cy="54.4091" r="2.86364" fill="#BB2525" fill-opacity="0.5"/>
<circle cx="37.2273" cy="54.4091" r="2.86364" fill="#BB2525" fill-opacity="0.5"/>
<circle cx="54.4091" cy="54.4091" r="2.86364" fill="#BB2525" fill-opacity="0.5"/>
<circle cx="71.5909" cy="54.4091" r="2.86364" fill="#BB2525" fill-opacity="0.5"/>
<circle cx="88.7728" cy="54.4091" r="2.86364" fill="#BB2525" fill-opacity="0.5"/>
<circle cx="105.955" cy="54.4091" r="2.86364" fill="#BB2525" fill-opacity="0.5"/>
<circle cx="123.136" cy="54.4091" r="2.86364" fill="#BB2525" fill-opacity="0.5"/>
<circle cx="140.318" cy="54.4091" r="2.86364" fill="#BB2525" fill-opacity="0.5"/>
<circle cx="157.5" cy="54.4091" r="2.86364" fill="#BB2525" fill-opacity="0.5"/>
<circle cx="174.682" cy="54.4091" r="2.86364" fill="#BB2525" fill-opacity="0.5"/>
</g>
<g clip-path="url(#clip3_16_32)">
<circle cx="2.86364" cy="71.5909" r="2.86364" fill="#BB2525" fill-opacity="0.5"/>
<circle cx="20.0455" cy="71.5909" r="2.86364" fill="#BB2525" fill-opacity="0.5"/>
<circle cx="37.2273" cy="71.5909" r="2.86364" fill="#BB2525" fill-opacity="0.5"/>
<circle cx="54.4091" cy="71.5909" r="2.86364" fill="#BB2525" fill-opacity="0.5"/>
<circle cx="71.5909" cy="71.5909" r="2.86364" fill="#BB2525" fill-opacity="0.5"/>
<circle cx="88.7728" cy="71.5909" r="2.86364" fill="#BB2525" fill-opacity="0.5"/>
<circle cx="105.955" cy="71.5909" r="2.86364" fill="#BB2525" fill-opacity="0.5"/>
<circle cx="123.136" cy="71.5909" r="2.86364" fill="#BB2525" fill-opacity="0.5"/>
<circle cx="140.318" cy="71.5909" r="2.86364" fill="#BB2525" fill-opacity="0.5"/>
<circle cx="157.5" cy="71.5909" r="2.86364" fill="#BB2525" fill-opacity="0.5"/>
<circle cx="174.682" cy="71.5909" r="2.86364" fill="#BB2525" fill-opacity="0.5"/>
</g>
<g clip-path="url(#clip4_16_32)">
<circle cx="2.86364" cy="88.7728" r="2.86364" fill="#BB2525" fill-opacity="0.5"/>
<circle cx="20.0455" cy="88.7728" r="2.86364" fill="#BB2525" fill-opacity="0.5"/>
<circle cx="37.2273" cy="88.7728" r="2.86364" fill="#BB2525" fill-opacity="0.5"/>
<circle cx="54.4091" cy="88.7728" r="2.86364" fill="#BB2525" fill-opacity="0.5"/>
<circle cx="71.5909" cy="88.7728" r="2.86364" fill="#BB2525" fill-opacity="0.5"/>
<circle cx="88.7728" cy="88.7728" r="2.86364" fill="#BB2525" fill-opacity="0.5"/>
<circle cx="105.955" cy="88.7728" r="2.86364" fill="#BB2525" fill-opacity="0.5"/>
<circle cx="123.136" cy="88.7728" r="2.86364" fill="#BB2525" fill-opacity="0.5"/>
<circle cx="140.318" cy="88.7728" r="2.86364" fill="#BB2525" fill-opacity="0.5"/>
<circle cx="157.5" cy="88.7728" r="2.86364" fill="#BB2525" fill-opacity="0.5"/>
<circle cx="174.682" cy="88.7728" r="2.86364" fill="#BB2525" fill-opacity="0.5"/>
</g>
<g clip-path="url(#clip5_16_32)">
<circle cx="2.86364" cy="105.955" r="2.86364" fill="#BB2525" fill-opacity="0.5"/>
<circle cx="20.0455" cy="105.955" r="2.86364" fill="#BB2525" fill-opacity="0.5"/>
<circle cx="37.2273" cy="105.955" r="2.86364" fill="#BB2525" fill-opacity="0.5"/>
<circle cx="54.4091" cy="105.955" r="2.86364" fill="#BB2525" fill-opacity="0.5"/>
<circle cx="71.5909" cy="105.955" r="2.86364" fill="#BB2525" fill-opacity="0.5"/>
<circle cx="88.7728" cy="105.955" r="2.86364" fill="#BB2525" fill-opacity="0.5"/>
<circle cx="105.955" cy="105.955" r="2.86364" fill="#BB2525" fill-opacity="0.5"/>
<circle cx="123.136" cy="105.955" r="2.86364" fill="#BB2525" fill-opacity="0.5"/>
<circle cx="140.318" cy="105.955" r="2.86364" fill="#BB2525" fill-opacity="0.5"/>
<circle cx="157.5" cy="105.955" r="2.86364" fill="#BB2525" fill-opacity="0.5"/>
<circle cx="174.682" cy="105.955" r="2.86364" fill="#BB2525" fill-opacity="0.5"/>
</g>
<g clip-path="url(#clip6_16_32)">
<circle cx="2.86364" cy="123.136" r="2.86364" fill="#BB2525" fill-opacity="0.5"/>
<circle cx="20.0455" cy="123.136" r="2.86364" fill="#BB2525" fill-opacity="0.5"/>
<circle cx="37.2273" cy="123.136" r="2.86364" fill="#BB2525" fill-opacity="0.5"/>
<circle cx="54.4091" cy="123.136" r="2.86364" fill="#BB2525" fill-opacity="0.5"/>
<circle cx="71.5909" cy="123.136" r="2.86364" fill="#BB2525" fill-opacity="0.5"/>
<circle cx="88.7728" cy="123.136" r="2.86364" fill="#BB2525" fill-opacity="0.5"/>
<circle cx="105.955" cy="123.136" r="2.86364" fill="#BB2525" fill-opacity="0.5"/>
<circle cx="123.136" cy="123.136" r="2.86364" fill="#BB2525" fill-opacity="0.5"/>
<circle cx="140.318" cy="123.136" r="2.86364" fill="#BB2525" fill-opacity="0.5"/>
<circle cx="157.5" cy="123.136" r="2.86364" fill="#BB2525" fill-opacity="0.5"/>
<circle cx="174.682" cy="123.136" r="2.86364" fill="#BB2525" fill-opacity="0.5"/>
</g>
<g clip-path="url(#clip7_16_32)">
<circle cx="2.86364" cy="140.318" r="2.86364" fill="#BB2525" fill-opacity="0.5"/>
<circle cx="20.0455" cy="140.318" r="2.86364" fill="#BB2525" fill-opacity="0.5"/>
<circle cx="37.2273" cy="140.318" r="2.86364" fill="#BB2525" fill-opacity="0.5"/>
<circle cx="54.4091" cy="140.318" r="2.86364" fill="#BB2525" fill-opacity="0.5"/>
<circle cx="71.5909" cy="140.318" r="2.86364" fill="#BB2525" fill-opacity="0.5"/>
<circle cx="88.7728" cy="140.318" r="2.86364" fill="#BB2525" fill-opacity="0.5"/>
<circle cx="105.955" cy="140.318" r="2.86364" fill="#BB2525" fill-opacity="0.5"/>
<circle cx="123.136" cy="140.318" r="2.86364" fill="#BB2525" fill-opacity="0.5"/>
<circle cx="140.318" cy="140.318" r="2.86364" fill="#BB2525" fill-opacity="0.5"/>
<circle cx="157.5" cy="140.318" r="2.86364" fill="#BB2525" fill-opacity="0.5"/>
<circle cx="174.682" cy="140.318" r="2.86364" fill="#BB2525" fill-opacity="0.5"/>
</g>
<g clip-path="url(#clip8_16_32)">
<circle cx="2.86364" cy="157.5" r="2.86364" fill="#BB2525" fill-opacity="0.5"/>
<circle cx="20.0455" cy="157.5" r="2.86364" fill="#BB2525" fill-opacity="0.5"/>
<circle cx="37.2273" cy="157.5" r="2.86364" fill="#BB2525" fill-opacity="0.5"/>
<circle cx="54.4091" cy="157.5" r="2.86364" fill="#BB2525" fill-opacity="0.5"/>
<circle cx="71.5909" cy="157.5" r="2.86364" fill="#BB2525" fill-opacity="0.5"/>
<circle cx="88.7728" cy="157.5" r="2.86364" fill="#BB2525" fill-opacity="0.5"/>
<circle cx="105.955" cy="157.5" r="2.86364" fill="#BB2525" fill-opacity="0.5"/>
<circle cx="123.136" cy="157.5" r="2.86364" fill="#BB2525" fill-opacity="0.5"/>
<circle cx="140.318" cy="157.5" r="2.86364" fill="#BB2525" fill-opacity="0.5"/>
<circle cx="157.5" cy="157.5" r="2.86364" fill="#BB2525" fill-opacity="0.5"/>
<circle cx="174.682" cy="157.5" r="2.86364" fill="#BB2525" fill-opacity="0.5"/>
</g>
<g clip-path="url(#clip9_16_32)">
<circle cx="2.86364" cy="174.682" r="2.86364" fill="#BB2525" fill-opacity="0.5"/>
<circle cx="20.0455" cy="174.682" r="2.86364" fill="#BB2525" fill-opacity="0.5"/>
<circle cx="37.2273" cy="174.682" r="2.86364" fill="#BB2525" fill-opacity="0.5"/>
<circle cx="54.4091" cy="174.682" r="2.86364" fill="#BB2525" fill-opacity="0.5"/>
<circle cx="71.5909" cy="174.682" r="2.86364" fill="#BB2525" fill-opacity="0.5"/>
<circle cx="88.7728" cy="174.682" r="2.86364" fill="#BB2525" fill-opacity="0.5"/>
<circle cx="105.955" cy="174.682" r="2.86364" fill="#BB2525" fill-opacity="0.5"/>
<circle cx="123.136" cy="174.682" r="2.86364" fill="#BB2525" fill-opacity="0.5"/>
<circle cx="140.318" cy="174.682" r="2.86364" fill="#BB2525" fill-opacity="0.5"/>
<circle cx="157.5" cy="174.682" r="2.86364" fill="#BB2525" fill-opacity="0.5"/>
<circle cx="174.682" cy="174.682" r="2.86364" fill="#BB2525" fill-opacity="0.5"/>
</g>
<defs>
<clipPath id="clip0_16_32">
<rect width="190.909" height="17.1818" fill="white" transform="translate(0 17.1818)"/>
</clipPath>
<clipPath id="clip1_16_32">
<rect width="190.909" height="17.1818" fill="white" transform="translate(0 34.3636)"/>
</clipPath>
<clipPath id="clip2_16_32">
<rect width="190.909" height="17.1818" fill="white" transform="translate(0 51.5455)"/>
</clipPath>
<clipPath id="clip3_16_32">
<rect width="190.909" height="17.1818" fill="white" transform="translate(0 68.7273)"/>
</clipPath>
<clipPath id="clip4_16_32">
<rect width="190.909" height="17.1818" fill="white" transform="translate(0 85.9091)"/>
</clipPath>
<clipPath id="clip5_16_32">
<rect width="190.909" height="17.1818" fill="white" transform="translate(0 103.091)"/>
</clipPath>
<clipPath id="clip6_16_32">
<rect width="190.909" height="17.1818" fill="white" transform="translate(0 120.273)"/>
</clipPath>
<clipPath id="clip7_16_32">
<rect width="190.909" height="17.1818" fill="white" transform="translate(0 137.455)"/>
</clipPath>
<clipPath id="clip8_16_32">
<rect width="190.909" height="17.1818" fill="white" transform="translate(0 154.636)"/>
</clipPath>
<clipPath id="clip9_16_32">
<rect width="190.909" height="17.1818" fill="white" transform="translate(0 171.818)"/>
</clipPath>
</defs>
</svg>
