<svg width="85" height="85" viewBox="0 0 85 85" fill="none" xmlns="http://www.w3.org/2000/svg">
<circle cx="42.5" cy="42.5" r="42.5" fill="#BB2525"/>
<path d="M62.7728 41.7728L58.9337 37.9337C58.1462 37.1462 57.0766 36.7066 55.9609 36.7066H53.5V30.4C53.5 29.2384 52.5616 28.3 51.4 28.3H24.1C22.9384 28.3 22 29.2384 22 30.4V52.45C22 55.3506 24.3494 57.7 27.25 57.7C28.9759 57.7 30.4919 56.8534 31.45 55.5737C32.4081 56.86 33.9241 57.7 35.65 57.7C38.5506 57.7 40.9 55.3506 40.9 52.45C40.9 52.089 40.8606 51.7412 40.795 51.4H51.505C51.4328 51.7412 51.4 52.089 51.4 52.45C51.4 55.3506 53.7494 57.7 56.65 57.7C59.5506 57.7 61.9 55.3506 61.9 52.45C61.9 52.089 61.8606 51.7412 61.795 51.4H62.95C63.5275 51.4 64 50.9275 64 50.35V44.739C64 43.6234 63.5603 42.5603 62.7728 41.7728ZM27.25 54.55C26.095 54.55 25.15 53.605 25.15 52.45C25.15 51.295 26.095 50.35 27.25 50.35C28.405 50.35 29.35 51.295 29.35 52.45C29.35 53.605 28.405 54.55 27.25 54.55ZM35.65 54.55C34.495 54.55 33.55 53.605 33.55 52.45C33.55 51.295 34.495 50.35 35.65 50.35C36.805 50.35 37.75 51.295 37.75 52.45C37.75 53.605 36.805 54.55 35.65 54.55ZM53.5 39.85H55.9609C56.2431 39.85 56.5056 39.9615 56.7025 40.1584L59.5441 43H53.5V39.85ZM56.65 54.55C55.495 54.55 54.55 53.605 54.55 52.45C54.55 51.295 55.495 50.35 56.65 50.35C57.805 50.35 58.75 51.295 58.75 52.45C58.75 53.605 57.805 54.55 56.65 54.55Z" fill="white"/>
</svg>
