<svg width="85" height="85" viewBox="0 0 85 85" fill="none" xmlns="http://www.w3.org/2000/svg">
<circle cx="42.5" cy="42.5" r="42.5" fill="#BB2525"/>
<path d="M43.11 22C31.451 22 22 31.451 22 43.11C22 54.769 31.451 64.22 43.11 64.22C54.769 64.22 64.22 54.769 64.22 43.11C64.22 31.451 54.769 22 43.11 22ZM42.1447 42.4486C41.8987 42.8589 41.4552 43.11 40.9769 43.11H40.9505C40.5896 43.11 40.2431 43.2539 39.9878 43.5092L39.506 43.991C39.2404 44.2566 39.2404 44.6881 39.506 44.9537L39.9878 45.4355C40.2431 45.6909 40.387 46.0373 40.387 46.3982V47.1958C40.387 47.9483 39.7775 48.5577 39.025 48.5577H38.505C37.9891 48.5577 37.5176 48.2666 37.2869 47.8044L35.3614 43.9544C35.1537 43.539 34.5996 43.4488 34.271 43.7773L32.6137 45.4338C32.3584 45.6892 32.0119 45.833 31.651 45.833H26.325C26.1811 44.9444 26.0858 44.0395 26.0858 43.11C26.0858 33.7229 33.7229 26.0858 43.11 26.0858C44.941 26.0858 46.7021 26.3846 48.356 26.9217L44.0863 30.2014C43.6514 30.4917 43.6922 31.1428 44.1595 31.3769L45.0814 31.8374C45.5428 32.0681 45.8339 32.5397 45.8339 33.0555V39.7052C45.8339 40.0814 45.5291 40.3861 45.1529 40.3861H44.8924C44.6345 40.3861 44.3987 40.2406 44.2838 40.0099C44.151 39.7443 43.7765 39.7298 43.6233 39.9844L42.1447 42.4486ZM56.7294 51.8289C56.7294 52.1899 56.5855 52.5363 56.3301 52.7917L55.5155 53.6063C55.2602 53.8616 54.9137 54.0055 54.5528 54.0055H53.2624C52.9015 54.0055 52.555 53.8616 52.2997 53.6063L51.1922 52.4988C50.914 52.2206 50.5685 52.0192 50.1893 51.9142C49.8101 51.8092 49.4102 51.8041 49.0285 51.8996L47.2179 52.3524C47.1098 52.3797 46.9992 52.3933 46.8877 52.3933H46.0075C45.6466 52.3933 45.3002 52.2494 45.0448 51.9941L44.031 50.9803C43.9034 50.8524 43.8318 50.6791 43.8318 50.4985V49.6303C43.8318 49.3519 44.0012 49.1017 44.26 48.9978L47.6086 47.658C47.7772 47.5908 47.9372 47.5031 48.0845 47.3984L50.1027 45.9607C50.218 45.8786 50.3561 45.8345 50.4977 45.8347H51.5268C51.8017 45.8347 52.0503 45.9999 52.1558 46.2544L52.6112 47.3482C52.6371 47.4102 52.6807 47.4631 52.7366 47.5004C52.7925 47.5376 52.8581 47.5575 52.9253 47.5576H53.2488C53.4003 47.5576 53.5339 47.4571 53.5756 47.3124L53.9331 46.0807C53.9757 45.9352 54.1085 45.8356 54.26 45.8356H54.7758C54.9639 45.8356 55.1163 45.9879 55.1163 46.1761V47.2767C55.1163 47.4571 55.1878 47.6308 55.3155 47.7585L56.3293 48.7722C56.5846 49.0276 56.7285 49.3741 56.7285 49.735L56.7294 51.8289Z" fill="white"/>
</svg>
