<svg width="85" height="86" viewBox="0 0 85 86" fill="none" xmlns="http://www.w3.org/2000/svg">
<circle cx="42.5" cy="42.9447" r="42.5" fill="#BB2525"/>
<path d="M32.5846 22.9423C32.7125 22.6702 32.9781 22.4313 33.3415 22.2614C33.7049 22.0916 34.1466 21.9998 34.6004 22H51.3993C51.7319 22.0002 52.0596 22.0497 52.3556 22.1445C52.6515 22.2393 52.9072 22.3767 53.1016 22.5453C53.2959 22.714 53.4235 22.909 53.4736 23.1145C53.5238 23.32 53.4951 23.53 53.39 23.7271L45.9145 37.7491H61.8987C62.2919 37.7489 62.6773 37.8177 63.011 37.9478C63.3447 38.0778 63.6133 38.2638 63.7862 38.4845C63.9591 38.7053 64.0293 38.9519 63.9889 39.1964C63.9485 39.4409 63.799 39.6733 63.5576 39.8673L34.1595 63.4909C33.8583 63.7341 33.4301 63.9034 32.9495 63.9694C32.469 64.0354 31.9666 63.9938 31.5301 63.852C31.0936 63.7101 30.7506 63.4769 30.5611 63.1931C30.3716 62.9093 30.3475 62.593 30.4931 62.2992L38.0568 46.936H24.1011C23.7746 46.9361 23.4526 46.8887 23.1606 46.7974C22.8686 46.7061 22.6147 46.5736 22.419 46.4103C22.2233 46.2469 22.0913 46.0573 22.0333 45.8565C21.9754 45.6557 21.9932 45.4493 22.0852 45.2535L32.5846 22.9423Z" fill="white"/>
</svg>
