<svg width="42" height="42" viewBox="0 0 42 42" fill="none" xmlns="http://www.w3.org/2000/svg">
<path d="M40.7728 19.7728L36.9337 15.9337C36.1462 15.1462 35.0766 14.7066 33.9609 14.7066H31.5V8.39999C31.5 7.23843 30.5616 6.29999 29.4 6.29999H2.1C0.938437 6.29999 0 7.23843 0 8.39999V30.45C0 33.3506 2.34937 35.7 5.25 35.7C6.97594 35.7 8.49187 34.8534 9.45 33.5737C10.4081 34.86 11.9241 35.7 13.65 35.7C16.5506 35.7 18.9 33.3506 18.9 30.45C18.9 30.089 18.8606 29.7412 18.795 29.4H29.505C29.4328 29.7412 29.4 30.089 29.4 30.45C29.4 33.3506 31.7494 35.7 34.65 35.7C37.5506 35.7 39.9 33.3506 39.9 30.45C39.9 30.089 39.8606 29.7412 39.795 29.4H40.95C41.5275 29.4 42 28.9275 42 28.35V22.739C42 21.6234 41.5603 20.5603 40.7728 19.7728ZM5.25 32.55C4.095 32.55 3.15 31.605 3.15 30.45C3.15 29.295 4.095 28.35 5.25 28.35C6.405 28.35 7.35 29.295 7.35 30.45C7.35 31.605 6.405 32.55 5.25 32.55ZM13.65 32.55C12.495 32.55 11.55 31.605 11.55 30.45C11.55 29.295 12.495 28.35 13.65 28.35C14.805 28.35 15.75 29.295 15.75 30.45C15.75 31.605 14.805 32.55 13.65 32.55ZM31.5 17.85H33.9609C34.2431 17.85 34.5056 17.9615 34.7025 18.1584L37.5441 21H31.5V17.85ZM34.65 32.55C33.495 32.55 32.55 31.605 32.55 30.45C32.55 29.295 33.495 28.35 34.65 28.35C35.805 28.35 36.75 29.295 36.75 30.45C36.75 31.605 35.805 32.55 34.65 32.55Z" fill="white"/>
</svg>
