<svg width="42" height="42" viewBox="0 0 42 42" fill="none" xmlns="http://www.w3.org/2000/svg">
<path d="M10.5846 0.942319C10.7125 0.670198 10.9781 0.431311 11.3415 0.261434C11.7049 0.0915577 12.1466 -0.000165855 12.6004 2.25137e-07H29.3993C29.7319 0.000157999 30.0596 0.0496778 30.3556 0.144483C30.6515 0.239288 30.9072 0.376668 31.1016 0.545312C31.2959 0.713956 31.4235 0.909042 31.4736 1.11451C31.5238 1.31998 31.4951 1.52995 31.39 1.72715L23.9145 15.7491H39.8987C40.2919 15.7489 40.6773 15.8177 41.011 15.9478C41.3447 16.0778 41.6133 16.2638 41.7862 16.4845C41.9591 16.7053 42.0293 16.9519 41.9889 17.1964C41.9485 17.4409 41.799 17.6733 41.5576 17.8673L12.1595 41.4909C11.8583 41.7341 11.4301 41.9034 10.9495 41.9694C10.469 42.0354 9.96659 41.9938 9.53007 41.852C9.09356 41.7101 8.75061 41.4769 8.56109 41.1931C8.37156 40.9093 8.3475 40.593 8.49309 40.2992L16.0568 24.936H2.1011C1.77463 24.9361 1.45261 24.8887 1.16062 24.7974C0.868634 24.7061 0.614714 24.5736 0.41903 24.4103C0.223345 24.2469 0.0912864 24.0573 0.0333412 23.8565C-0.024604 23.6557 -0.00683961 23.4493 0.0852242 23.2535L10.5846 0.942319Z" fill="white"/>
</svg>
