<svg width="43" height="43" viewBox="0 0 43 43" fill="none" xmlns="http://www.w3.org/2000/svg">
<path d="M21.11 0C9.45098 0 0 9.45098 0 21.11C0 32.769 9.45098 42.22 21.11 42.22C32.769 42.22 42.22 32.769 42.22 21.11C42.22 9.45098 32.769 0 21.11 0ZM20.1447 20.4486C19.8987 20.8589 19.4552 21.11 18.9769 21.11H18.9505C18.5896 21.11 18.2431 21.2539 17.9878 21.5092L17.506 21.991C17.2404 22.2566 17.2404 22.6881 17.506 22.9537L17.9878 23.4355C18.2431 23.6909 18.387 24.0373 18.387 24.3982V25.1958C18.387 25.9483 17.7775 26.5577 17.025 26.5577H16.505C15.9891 26.5577 15.5176 26.2666 15.2869 25.8044L13.3614 21.9544C13.1537 21.539 12.5996 21.4488 12.271 21.7773L10.6137 23.4338C10.3584 23.6892 10.0119 23.833 9.65102 23.833H4.325C4.18114 22.9444 4.08581 22.0395 4.08581 21.11C4.08581 11.7229 11.7229 4.08581 21.11 4.08581C22.941 4.08581 24.7021 4.38458 26.356 4.92169L22.0863 8.20141C21.6514 8.49167 21.6922 9.14284 22.1595 9.37693L23.0814 9.83743C23.5428 10.0681 23.8339 10.5397 23.8339 11.0555V17.7052C23.8339 18.0814 23.5291 18.3861 23.1529 18.3861H22.8924C22.6345 18.3861 22.3987 18.2406 22.2838 18.0099C22.151 17.7443 21.7765 17.7298 21.6233 17.9844L20.1447 20.4486ZM34.7294 29.8289C34.7294 30.1899 34.5855 30.5363 34.3301 30.7917L33.5155 31.6063C33.2602 31.8616 32.9137 32.0055 32.5528 32.0055H31.2624C30.9015 32.0055 30.555 31.8616 30.2997 31.6063L29.1922 30.4988C28.914 30.2206 28.5685 30.0192 28.1893 29.9142C27.8101 29.8092 27.4102 29.8041 27.0285 29.8996L25.2179 30.3524C25.1098 30.3797 24.9992 30.3933 24.8877 30.3933H24.0075C23.6466 30.3933 23.3002 30.2494 23.0448 29.9941L22.031 28.9803C21.9034 28.8524 21.8318 28.6791 21.8318 28.4985V27.6303C21.8318 27.3519 22.0012 27.1017 22.26 26.9978L25.6086 25.658C25.7772 25.5908 25.9372 25.5031 26.0845 25.3984L28.1027 23.9607C28.218 23.8786 28.3561 23.8345 28.4977 23.8347H29.5268C29.8017 23.8347 30.0503 23.9999 30.1558 24.2544L30.6112 25.3482C30.6371 25.4102 30.6807 25.4631 30.7366 25.5004C30.7925 25.5376 30.8581 25.5575 30.9253 25.5576H31.2488C31.4003 25.5576 31.5339 25.4571 31.5756 25.3124L31.9331 24.0807C31.9757 23.9352 32.1085 23.8356 32.26 23.8356H32.7758C32.9639 23.8356 33.1163 23.9879 33.1163 24.1761V25.2767C33.1163 25.4571 33.1878 25.6308 33.3155 25.7585L34.3293 26.7722C34.5846 27.0276 34.7285 27.3741 34.7285 27.735L34.7294 29.8289Z" fill="white"/>
</svg>
