<svg width="52" height="52" viewBox="0 0 52 52" fill="none" xmlns="http://www.w3.org/2000/svg">
<path d="M47.125 3.25H34.125C31.4336 3.25 29.25 5.43359 29.25 8.125V21.125C29.25 23.8164 31.4336 26 34.125 26H42.25V32.5C42.25 36.0852 39.3352 39 35.75 39H34.9375C33.5867 39 32.5 40.0867 32.5 41.4375V46.3125C32.5 47.6633 33.5867 48.75 34.9375 48.75H35.75C44.7281 48.75 52 41.4781 52 32.5V8.125C52 5.43359 49.8164 3.25 47.125 3.25ZM17.875 3.25H4.875C2.18359 3.25 0 5.43359 0 8.125V21.125C0 23.8164 2.18359 26 4.875 26H13V32.5C13 36.0852 10.0852 39 6.5 39H5.6875C4.33672 39 3.25 40.0867 3.25 41.4375V46.3125C3.25 47.6633 4.33672 48.75 5.6875 48.75H6.5C15.4781 48.75 22.75 41.4781 22.75 32.5V8.125C22.75 5.43359 20.5664 3.25 17.875 3.25Z" fill="white" fill-opacity="0.3"/>
</svg>
