<svg width="43" height="52" viewBox="0 0 43 52" fill="none" xmlns="http://www.w3.org/2000/svg">
<path d="M21.11 0.409668C9.45098 0.409668 0 11.9303 0 26.1425C0 40.3547 9.45098 51.8753 21.11 51.8753C32.769 51.8753 42.22 40.3547 42.22 26.1425C42.22 11.9303 32.769 0.409668 21.11 0.409668ZM20.1447 25.3363C19.8987 25.8364 19.4552 26.1425 18.9769 26.1425H18.9505C18.5896 26.1425 18.2431 26.3178 17.9878 26.6291L17.506 27.2164C17.2404 27.5402 17.2404 28.0662 17.506 28.39L17.9878 28.9772C18.2431 29.2885 18.387 29.7108 18.387 30.1508V31.123C18.387 32.0403 17.7775 32.7832 17.025 32.7832H16.505C15.9891 32.7832 15.5176 32.4283 15.2869 31.8649L13.3614 27.1718C13.1537 26.6654 12.5996 26.5555 12.271 26.956L10.6137 28.9752C10.3584 29.2865 10.0119 29.4618 9.65102 29.4618H4.325C4.18114 28.3785 4.08581 27.2756 4.08581 26.1425C4.08581 14.6997 11.7229 5.39021 21.11 5.39021C22.941 5.39021 24.7021 5.75442 26.356 6.40915L22.0863 10.4071C21.6514 10.7609 21.6922 11.5547 22.1595 11.84L23.0814 12.4014C23.5428 12.6826 23.8339 13.2574 23.8339 13.8862V21.992C23.8339 22.4507 23.5291 22.8221 23.1529 22.8221H22.8924C22.6345 22.8221 22.3987 22.6447 22.2838 22.3635C22.151 22.0398 21.7765 22.0221 21.6233 22.3324L20.1447 25.3363ZM34.7294 36.7708C34.7294 37.2107 34.5855 37.633 34.3301 37.9443L33.5155 38.9373C33.2602 39.2486 32.9137 39.4239 32.5528 39.4239H31.2624C30.9015 39.4239 30.555 39.2486 30.2997 38.9373L29.1922 37.5874C28.914 37.2482 28.5685 37.0027 28.1893 36.8747C27.8101 36.7467 27.4102 36.7405 27.0285 36.8569L25.2179 37.4089C25.1098 37.4421 24.9992 37.4587 24.8877 37.4587H24.0075C23.6466 37.4587 23.3002 37.2833 23.0448 36.9721L22.031 35.7363C21.9034 35.5804 21.8318 35.3692 21.8318 35.149V34.0906C21.8318 33.7513 22.0012 33.4462 22.26 33.3197L25.6086 31.6865C25.7772 31.6045 25.9372 31.4976 26.0845 31.37L28.1027 29.6175C28.218 29.5173 28.3561 29.4636 28.4977 29.4639H29.5268C29.8017 29.4639 30.0503 29.6652 30.1558 29.9754L30.6112 31.3088C30.6371 31.3843 30.6807 31.4489 30.7366 31.4943C30.7925 31.5397 30.8581 31.564 30.9253 31.564H31.2488C31.4003 31.564 31.5339 31.4416 31.5756 31.2652L31.9331 29.7638C31.9757 29.5863 32.1085 29.4649 32.26 29.4649H32.7758C32.9639 29.4649 33.1163 29.6507 33.1163 29.88V31.2216C33.1163 31.4416 33.1878 31.6532 33.3155 31.8089L34.3293 33.0447C34.5846 33.356 34.7285 33.7783 34.7285 34.2182V36.7708H34.7294Z" fill="white"/>
</svg>
