<svg width="42" height="52" viewBox="0 0 42 52" fill="none" xmlns="http://www.w3.org/2000/svg">
<path d="M10.5846 1.14867C10.7125 0.816963 10.9781 0.525762 11.3415 0.318685C11.7049 0.111608 12.1466 -0.000202175 12.6004 2.74439e-07H29.3993C29.7319 0.000192599 30.0596 0.0605566 30.3556 0.176123C30.6515 0.291689 30.9072 0.459153 31.1016 0.664728C31.2959 0.870303 31.4235 1.10811 31.4736 1.35857C31.5238 1.60904 31.4951 1.86499 31.39 2.10537L23.9145 19.1979H39.8987C40.2919 19.1977 40.6773 19.2816 41.011 19.4401C41.3447 19.5986 41.6133 19.8253 41.7862 20.0944C41.9591 20.3635 42.0293 20.6642 41.9889 20.9622C41.9485 21.2602 41.799 21.5436 41.5576 21.78L12.1595 50.5769C11.8583 50.8733 11.4301 51.0798 10.9495 51.1602C10.469 51.2406 9.96659 51.1899 9.53007 51.017C9.09356 50.844 8.75061 50.5598 8.56109 50.2139C8.37156 49.868 8.3475 49.4823 8.49309 49.1242L16.0568 30.3967H2.1011C1.77463 30.3968 1.45261 30.339 1.16062 30.2277C0.868634 30.1165 0.614714 29.9549 0.41903 29.7558C0.223345 29.5567 0.0912864 29.3256 0.0333412 29.0808C-0.024604 28.836 -0.00683961 28.5843 0.0852242 28.3457L10.5846 1.14867Z" fill="white"/>
</svg>
